<svg xmlns="http://www.w3.org/2000/svg" xmlns:xlink="http://www.w3.org/1999/xlink" width="362" height="132.9" viewBox="0 0 362 132.9">
  <defs>
    <clipPath id="clip-path">
      <rect id="Rectangle_69" data-name="Rectangle 69" width="362" height="132.9" fill="none"/>
    </clipPath>
    <clipPath id="clip-path-2">
      <rect id="Rectangle_68" data-name="Rectangle 68" width="362" height="132.899" fill="#003252"/>
    </clipPath>
    <clipPath id="clip-path-3">
      <rect id="Rectangle_60" data-name="Rectangle 60" width="41.278" height="41.277" fill="none"/>
    </clipPath>
    <clipPath id="clip-path-4">
      <rect id="Rectangle_61" data-name="Rectangle 61" width="54.685" height="54.685" fill="none"/>
    </clipPath>
    <clipPath id="clip-path-5">
      <rect id="Rectangle_62" data-name="Rectangle 62" width="41.278" height="41.278" fill="#0597f2"/>
    </clipPath>
    <clipPath id="clip-path-7">
      <rect id="Rectangle_64" data-name="Rectangle 64" width="41.278" height="41.278" fill="none"/>
    </clipPath>
  </defs>
  <g id="Group_165" data-name="Group 165" clip-path="url(#clip-path)">
    <g id="Group_164" data-name="Group 164" transform="translate(0 0.001)">
      <g id="Group_163" data-name="Group 163" clip-path="url(#clip-path-2)">
        <path id="Path_169" data-name="Path 169" d="M42.98,47.344H10.613A4.453,4.453,0,0,1,6.157,42.89V10.52a4.453,4.453,0,0,1,4.456-4.453H42.98a4.453,4.453,0,0,1,4.453,4.453V42.89a4.453,4.453,0,0,1-4.453,4.453" transform="translate(12.134 11.956)" fill="#fff"/>
        <path id="Path_170" data-name="Path 170" d="M24.192,66.609,1.305,43.721a4.454,4.454,0,0,1,0-6.3L24.192,14.533a4.454,4.454,0,0,1,6.3,0L53.381,37.42a4.459,4.459,0,0,1,0,6.3L30.493,66.609a4.454,4.454,0,0,1-6.3,0" transform="translate(-0.001 26.068)" fill="#fff"/>
        <path id="Path_171" data-name="Path 171" d="M42.98,66.051H10.613A4.453,4.453,0,0,1,6.157,61.6V29.227a4.453,4.453,0,0,1,4.456-4.453H42.98a4.453,4.453,0,0,1,4.453,4.453V61.6a4.453,4.453,0,0,1-4.453,4.453" transform="translate(12.134 48.824)" fill="#fff"/>
        <path id="Path_172" data-name="Path 172" d="M37.292,79.709,14.405,56.821a4.454,4.454,0,0,1,0-6.3L37.292,27.633a4.454,4.454,0,0,1,6.3,0L66.481,50.52a4.459,4.459,0,0,1,0,6.3L43.593,79.709a4.454,4.454,0,0,1-6.3,0" transform="translate(25.817 51.886)" fill="#fff"/>
        <path id="Path_173" data-name="Path 173" d="M61.506,66.051H29.139A4.453,4.453,0,0,1,24.683,61.6V29.227a4.453,4.453,0,0,1,4.456-4.453H61.506a4.453,4.453,0,0,1,4.453,4.453V61.6a4.453,4.453,0,0,1-4.453,4.453" transform="translate(48.646 48.824)" fill="#fff"/>
        <path id="Path_174" data-name="Path 174" d="M50.52,66.481,27.633,43.593a4.454,4.454,0,0,1,0-6.3L50.52,14.405a4.454,4.454,0,0,1,6.3,0L79.709,37.292a4.459,4.459,0,0,1,0,6.3L56.821,66.481a4.454,4.454,0,0,1-6.3,0" transform="translate(51.887 25.816)" fill="#fff"/>
        <path id="Path_175" data-name="Path 175" d="M61.506,47.344H29.139a4.453,4.453,0,0,1-4.456-4.453V10.52a4.453,4.453,0,0,1,4.456-4.453H61.506A4.453,4.453,0,0,1,65.96,10.52V42.89a4.453,4.453,0,0,1-4.453,4.453" transform="translate(48.646 11.956)" fill="#fff"/>
        <path id="Path_176" data-name="Path 176" d="M37.421,53.381,14.534,30.493a4.454,4.454,0,0,1,0-6.3L37.421,1.305a4.454,4.454,0,0,1,6.3,0L66.61,24.192a4.459,4.459,0,0,1,0,6.3L43.722,53.381a4.454,4.454,0,0,1-6.3,0" transform="translate(26.071 -0.002)" fill="#fff"/>
        <g id="Group_141" data-name="Group 141" transform="translate(18.293 18.022)" style="mix-blend-mode: multiply;isolation: isolate">
          <g id="Group_140" data-name="Group 140">
            <g id="Group_139" data-name="Group 139" clip-path="url(#clip-path-3)">
              <path id="Path_177" data-name="Path 177" d="M42.98,47.344H10.613A4.453,4.453,0,0,1,6.157,42.89V10.52a4.453,4.453,0,0,1,4.456-4.453H42.98a4.453,4.453,0,0,1,4.453,4.453V42.89a4.453,4.453,0,0,1-4.453,4.453" transform="translate(-6.159 -6.066)" fill="#ff6e57"/>
            </g>
          </g>
        </g>
        <g id="Group_144" data-name="Group 144" transform="translate(0 39.298)" style="mix-blend-mode: multiply;isolation: isolate">
          <g id="Group_143" data-name="Group 143">
            <g id="Group_142" data-name="Group 142" clip-path="url(#clip-path-4)">
              <path id="Path_178" data-name="Path 178" d="M24.192,66.609,1.305,43.721a4.454,4.454,0,0,1,0-6.3L24.192,14.533a4.454,4.454,0,0,1,6.3,0L53.381,37.42a4.459,4.459,0,0,1,0,6.3L30.493,66.609a4.454,4.454,0,0,1-6.3,0" transform="translate(-0.001 -13.229)" fill="#9b7fb8"/>
            </g>
          </g>
        </g>
        <g id="Group_147" data-name="Group 147" transform="translate(18.293 73.599)" style="mix-blend-mode: multiply;isolation: isolate">
          <g id="Group_146" data-name="Group 146">
            <g id="Group_145" data-name="Group 145" clip-path="url(#clip-path-5)">
              <path id="Path_179" data-name="Path 179" d="M42.98,66.051H10.613A4.453,4.453,0,0,1,6.157,61.6V29.227a4.453,4.453,0,0,1,4.456-4.453H42.98a4.453,4.453,0,0,1,4.453,4.453V61.6a4.453,4.453,0,0,1-4.453,4.453" transform="translate(-6.159 -24.774)" fill="#0597f2"/>
            </g>
          </g>
        </g>
        <g id="Group_150" data-name="Group 150" transform="translate(38.917 78.214)" style="mix-blend-mode: multiply;isolation: isolate">
          <g id="Group_149" data-name="Group 149">
            <g id="Group_148" data-name="Group 148" clip-path="url(#clip-path-4)">
              <path id="Path_180" data-name="Path 180" d="M37.292,79.709,14.405,56.821a4.454,4.454,0,0,1,0-6.3L37.292,27.633a4.454,4.454,0,0,1,6.3,0L66.481,50.52a4.459,4.459,0,0,1,0,6.3L43.593,79.709a4.454,4.454,0,0,1-6.3,0" transform="translate(-13.1 -26.328)" fill="#6cd0f6"/>
            </g>
          </g>
        </g>
        <g id="Group_153" data-name="Group 153" transform="translate(73.33 73.599)" style="mix-blend-mode: multiply;isolation: isolate">
          <g id="Group_152" data-name="Group 152">
            <g id="Group_151" data-name="Group 151" clip-path="url(#clip-path-7)">
              <path id="Path_181" data-name="Path 181" d="M61.506,66.051H29.139A4.453,4.453,0,0,1,24.683,61.6V29.227a4.453,4.453,0,0,1,4.456-4.453H61.506a4.453,4.453,0,0,1,4.453,4.453V61.6a4.453,4.453,0,0,1-4.453,4.453" transform="translate(-24.684 -24.774)" fill="#94cf00"/>
            </g>
          </g>
        </g>
        <g id="Group_156" data-name="Group 156" transform="translate(78.215 38.916)" style="mix-blend-mode: multiply;isolation: isolate">
          <g id="Group_155" data-name="Group 155">
            <g id="Group_154" data-name="Group 154" clip-path="url(#clip-path-4)">
              <path id="Path_182" data-name="Path 182" d="M50.52,66.481,27.633,43.593a4.454,4.454,0,0,1,0-6.3L50.52,14.405a4.454,4.454,0,0,1,6.3,0L79.709,37.292a4.459,4.459,0,0,1,0,6.3L56.821,66.481a4.454,4.454,0,0,1-6.3,0" transform="translate(-26.329 -13.1)" fill="#b5dc5e"/>
            </g>
          </g>
        </g>
        <g id="Group_159" data-name="Group 159" transform="translate(73.33 18.022)" style="mix-blend-mode: multiply;isolation: isolate">
          <g id="Group_158" data-name="Group 158">
            <g id="Group_157" data-name="Group 157" clip-path="url(#clip-path-3)">
              <path id="Path_183" data-name="Path 183" d="M61.506,47.344H29.139a4.453,4.453,0,0,1-4.456-4.453V10.52a4.453,4.453,0,0,1,4.456-4.453H61.506A4.453,4.453,0,0,1,65.96,10.52V42.89a4.453,4.453,0,0,1-4.453,4.453" transform="translate(-24.684 -6.066)" fill="#ffca21"/>
            </g>
          </g>
        </g>
        <g id="Group_162" data-name="Group 162" transform="translate(39.298 -0.001)" style="mix-blend-mode: multiply;isolation: isolate">
          <g id="Group_161" data-name="Group 161">
            <g id="Group_160" data-name="Group 160" clip-path="url(#clip-path-4)">
              <path id="Path_184" data-name="Path 184" d="M37.421,53.381,14.534,30.493a4.454,4.454,0,0,1,0-6.3L37.421,1.305a4.454,4.454,0,0,1,6.3,0L66.61,24.192a4.459,4.459,0,0,1,0,6.3L43.722,53.381a4.454,4.454,0,0,1-6.3,0" transform="translate(-13.227 -0.001)" fill="#ff8300"/>
            </g>
          </g>
        </g>
        <path id="Path_185" data-name="Path 185" d="M53.277,28.043a.6.6,0,0,1-.434-.187.589.589,0,0,1-.184-.434,1.074,1.074,0,0,1,.059-.342L60.567,6.95a1.059,1.059,0,0,1,.327-.466.915.915,0,0,1,.573-.154h1.055a.921.921,0,0,1,.573.154,1.084,1.084,0,0,1,.327.466l7.846,20.13a1.084,1.084,0,0,1,.062.342.634.634,0,0,1-.621.621h-.621a.586.586,0,0,1-.463-.172,1.352,1.352,0,0,1-.217-.294l-1.925-4.961H56.5l-1.922,4.961a.711.711,0,0,1-.2.294.641.641,0,0,1-.481.172Zm3.972-7.29h9.492L61.993,8.53Z" transform="translate(103.781 12.473)" fill="#003252"/>
        <path id="Path_186" data-name="Path 186" d="M60.859,28.043a.643.643,0,0,1-.683-.683V7.012a.644.644,0,0,1,.683-.683h.588a.644.644,0,0,1,.683.683V26.18h10.7a.714.714,0,0,1,.529.187.724.724,0,0,1,.184.529v.463a.678.678,0,0,1-.184.5.714.714,0,0,1-.529.187Z" transform="translate(118.596 12.473)" fill="#003252"/>
        <path id="Path_187" data-name="Path 187" d="M66.581,28.043a.643.643,0,0,1-.683-.683V7.012a.643.643,0,0,1,.683-.683h.588a.644.644,0,0,1,.683.683V26.18h10.7a.714.714,0,0,1,.529.187.724.724,0,0,1,.184.529v.463a.677.677,0,0,1-.184.5.714.714,0,0,1-.529.187Z" transform="translate(129.873 12.473)" fill="#003252"/>
        <path id="Path_188" data-name="Path 188" d="M72.3,28.043a.643.643,0,0,1-.683-.683V7.012a.643.643,0,0,1,.683-.683h.588a.644.644,0,0,1,.683.683V27.359a.644.644,0,0,1-.683.683Z" transform="translate(141.15 12.473)" fill="#003252"/>
        <path id="Path_189" data-name="Path 189" d="M74.128,28.043a.6.6,0,0,1-.434-.187.589.589,0,0,1-.184-.434,1.075,1.075,0,0,1,.059-.342L81.418,6.95a1.059,1.059,0,0,1,.327-.466.915.915,0,0,1,.573-.154h1.055a.921.921,0,0,1,.573.154,1.083,1.083,0,0,1,.327.466l7.846,20.13a1.084,1.084,0,0,1,.062.342.634.634,0,0,1-.621.621H90.94a.586.586,0,0,1-.463-.172,1.351,1.351,0,0,1-.217-.294l-1.925-4.961H77.354l-1.922,4.961a.711.711,0,0,1-.2.294.641.641,0,0,1-.481.172Zm3.972-7.29h9.492L82.844,8.53Z" transform="translate(144.875 12.473)" fill="#003252"/>
        <path id="Path_190" data-name="Path 190" d="M81.71,28.043a.643.643,0,0,1-.683-.683V7.042a.711.711,0,0,1,.187-.526.668.668,0,0,1,.5-.187h.651a.631.631,0,0,1,.466.154,1.2,1.2,0,0,1,.184.22L94.458,24.2V7.042a.711.711,0,0,1,.187-.526.668.668,0,0,1,.5-.187H95.7a.65.65,0,0,1,.713.713V27.33a.718.718,0,0,1-.187.511.635.635,0,0,1-.5.2h-.68a.581.581,0,0,1-.452-.154c-.092-.1-.16-.175-.2-.217L82.982,10.236V27.359a.668.668,0,0,1-.187.5.706.706,0,0,1-.526.187Z" transform="translate(159.689 12.473)" fill="#003252"/>
        <path id="Path_191" data-name="Path 191" d="M96.119,28.56a8.62,8.62,0,0,1-4.6-1.1,6.749,6.749,0,0,1-2.653-2.995,11.275,11.275,0,0,1-.963-4.311q-.031-1.27-.033-2.73t.033-2.79a11.418,11.418,0,0,1,.963-4.328,6.634,6.634,0,0,1,2.653-2.992,8.732,8.732,0,0,1,4.6-1.087,10.122,10.122,0,0,1,3.752.621A7.134,7.134,0,0,1,102.4,8.474a6.976,6.976,0,0,1,2,4.453.485.485,0,0,1-.172.449.719.719,0,0,1-.478.169h-.624a.681.681,0,0,1-.431-.14.77.77,0,0,1-.25-.511,5.573,5.573,0,0,0-2.219-3.785,7.578,7.578,0,0,0-4.109-1.022,6.187,6.187,0,0,0-4.483,1.6q-1.658,1.6-1.783,5.1-.094,2.545,0,5.211.12,3.507,1.783,5.1a6.2,6.2,0,0,0,4.483,1.6,7.578,7.578,0,0,0,4.109-1.022,5.573,5.573,0,0,0,2.219-3.785.77.77,0,0,1,.25-.511.681.681,0,0,1,.431-.14h.624a.719.719,0,0,1,.478.169.488.488,0,0,1,.172.452,6.978,6.978,0,0,1-2,4.45,7.134,7.134,0,0,1-2.528,1.628,10.122,10.122,0,0,1-3.752.621" transform="translate(173.168 12.268)" fill="#003252"/>
        <path id="Path_192" data-name="Path 192" d="M95.649,28.043a.643.643,0,0,1-.683-.683V7.042a.711.711,0,0,1,.187-.526.668.668,0,0,1,.5-.187h12.1a.65.65,0,0,1,.713.713v.466a.668.668,0,0,1-.187.5.706.706,0,0,1-.526.187H96.921V16.1h10.142a.7.7,0,0,1,.526.187.711.711,0,0,1,.187.526v.466a.667.667,0,0,1-.187.5.7.7,0,0,1-.526.187H96.921V26.18H108a.651.651,0,0,1,.713.716v.463a.668.668,0,0,1-.187.5.711.711,0,0,1-.526.187Z" transform="translate(187.161 12.473)" fill="#003252"/>
        <path id="Path_193" data-name="Path 193" d="M104.524,28.043a.643.643,0,0,1-.683-.683V7.042a.711.711,0,0,1,.187-.526.668.668,0,0,1,.5-.187H116.5a.714.714,0,0,1,.529.187.722.722,0,0,1,.184.526v.466a.677.677,0,0,1-.184.5.714.714,0,0,1-.529.187H105.8v8.342h10.08a.714.714,0,0,1,.529.187.722.722,0,0,1,.184.526v.466a.678.678,0,0,1-.184.5.714.714,0,0,1-.529.187H105.8v8.963a.668.668,0,0,1-.187.5.706.706,0,0,1-.526.187Z" transform="translate(204.652 12.473)" fill="#003252"/>
        <path id="Path_194" data-name="Path 194" d="M117.668,28.56a9.564,9.564,0,0,1-4.373-.915,6.2,6.2,0,0,1-2.763-2.825A11.552,11.552,0,0,1,109.478,20q-.031-1.4-.03-2.605t.03-2.605a10.828,10.828,0,0,1,1.117-4.792,6.6,6.6,0,0,1,2.84-2.84,10.1,10.1,0,0,1,8.467,0,6.7,6.7,0,0,1,2.855,2.84,10.443,10.443,0,0,1,1.1,4.792c.039.93.062,1.8.062,2.605s-.024,1.673-.062,2.605a11.116,11.116,0,0,1-1.04,4.822,6.284,6.284,0,0,1-2.778,2.825,9.564,9.564,0,0,1-4.373.915m0-1.863a6.157,6.157,0,0,0,4.388-1.613q1.725-1.613,1.845-5.241c.045-.933.062-1.75.062-2.451s-.018-1.521-.062-2.451A8.717,8.717,0,0,0,123.019,11a5.139,5.139,0,0,0-2.2-2.219,6.908,6.908,0,0,0-3.149-.7,6.823,6.823,0,0,0-3.116.7,5.145,5.145,0,0,0-2.2,2.219,9.021,9.021,0,0,0-.915,3.939q-.031,1.395-.03,2.451t.03,2.451q.125,3.627,1.863,5.241a6.175,6.175,0,0,0,4.373,1.613" transform="translate(215.702 12.268)" fill="#003252"/>
        <path id="Path_195" data-name="Path 195" d="M117.335,28.043a.644.644,0,0,1-.683-.683V7.042a.711.711,0,0,1,.187-.526.667.667,0,0,1,.5-.187h7.228a8.086,8.086,0,0,1,5.2,1.551,5.677,5.677,0,0,1,1.937,4.715,6.012,6.012,0,0,1-1.239,3.972,6.227,6.227,0,0,1-3.443,2.017l4.994,8.5a.767.767,0,0,1,.092.342.64.64,0,0,1-.618.621h-.374a.968.968,0,0,1-.746-.264,3.42,3.42,0,0,1-.434-.573L125,18.863h-6.39v8.5a.663.663,0,0,1-.187.5.706.706,0,0,1-.526.187ZM118.607,17h5.8a6.155,6.155,0,0,0,4.017-1.1,4.06,4.06,0,0,0,1.319-3.3,4.072,4.072,0,0,0-1.319-3.3,6.173,6.173,0,0,0-4.017-1.1h-5.8Z" transform="translate(229.9 12.473)" fill="#003252"/>
        <path id="Path_196" data-name="Path 196" d="M54.217,48.161a1.054,1.054,0,0,1-.772-.318,1.065,1.065,0,0,1-.318-.775V17.458a1.12,1.12,0,0,1,.318-.82,1.054,1.054,0,0,1,.772-.318h11.1a17.734,17.734,0,0,1,7.573,1.411,9.736,9.736,0,0,1,4.5,4.183,14.249,14.249,0,0,1,1.569,6.779q.089,2,.092,3.547t-.092,3.5a15.553,15.553,0,0,1-1.545,6.981,9.078,9.078,0,0,1-4.391,4.094,18.049,18.049,0,0,1-7.483,1.343Zm5.232-5.232h5.867a10.01,10.01,0,0,0,4.141-.728A4.641,4.641,0,0,0,71.8,39.858a10.675,10.675,0,0,0,.8-4.251q.045-1.364.068-2.389c.015-.683.015-1.364,0-2.047s-.039-1.462-.068-2.341q-.094-3.73-1.866-5.5T65.09,21.552H59.449Z" transform="translate(104.704 32.163)" fill="#003252"/>
        <path id="Path_197" data-name="Path 197" d="M64.982,48.159a1.09,1.09,0,0,1-1.093-1.093V17.459a1.1,1.1,0,0,1,.321-.82,1.054,1.054,0,0,1,.772-.318H84.994a1.089,1.089,0,0,1,1.138,1.138v3a1.054,1.054,0,0,1-.318.772,1.1,1.1,0,0,1-.82.318H70.03V29.6H84a1.156,1.156,0,0,1,.817.3,1.03,1.03,0,0,1,.321.8v2.819a1.026,1.026,0,0,1-.321.8,1.143,1.143,0,0,1-.817.3H70.03v8.321H85.359A1.089,1.089,0,0,1,86.5,44.065v3a1.06,1.06,0,0,1-.318.775,1.12,1.12,0,0,1-.82.318Z" transform="translate(125.914 32.165)" fill="#003252"/>
        <path id="Path_198" data-name="Path 198" d="M86.356,48.917a15.8,15.8,0,0,1-7.166-1.479,10.335,10.335,0,0,1-4.48-4.227,14.786,14.786,0,0,1-1.726-6.619q-.049-1.867-.048-4t.048-4.094a14.594,14.594,0,0,1,1.75-6.592,10.431,10.431,0,0,1,4.5-4.254,15.676,15.676,0,0,1,7.118-1.479,17.49,17.49,0,0,1,5.549.82,12.9,12.9,0,0,1,4.186,2.252,10.358,10.358,0,0,1,2.683,3.342,9.636,9.636,0,0,1,1,4.141.761.761,0,0,1-.253.68.99.99,0,0,1-.7.273H94.5a1.29,1.29,0,0,1-.82-.25,1.443,1.443,0,0,1-.455-.844,6.252,6.252,0,0,0-2.5-4.091A8.255,8.255,0,0,0,86.312,21.4,6.834,6.834,0,0,0,81.442,23.1q-1.818,1.707-1.955,5.618-.134,3.73,0,7.641t1.955,5.618a6.834,6.834,0,0,0,4.869,1.705,8.126,8.126,0,0,0,4.412-1.114,6.308,6.308,0,0,0,2.5-4.07A1.154,1.154,0,0,1,94.5,37.408h4.32a1,1,0,0,1,.7.273.764.764,0,0,1,.253.683,9.613,9.613,0,0,1-1,4.138,10.326,10.326,0,0,1-2.683,3.342A12.848,12.848,0,0,1,91.906,48.1a17.49,17.49,0,0,1-5.549.82" transform="translate(143.745 31.862)" fill="#003252"/>
        <path id="Path_199" data-name="Path 199" d="M84.885,48.159a1.09,1.09,0,0,1-1.093-1.093V17.414a1.09,1.09,0,0,1,1.093-1.093H89.16a1.038,1.038,0,0,1,.8.318,1.1,1.1,0,0,1,.3.775V47.066a1.1,1.1,0,0,1-.3.775,1.038,1.038,0,0,1-.8.318Z" transform="translate(165.139 32.165)" fill="#003252"/>
        <path id="Path_200" data-name="Path 200" d="M100.691,48.917a17.625,17.625,0,0,1-7.074-1.251A10.323,10.323,0,0,1,89.3,44.39a7.648,7.648,0,0,1-1.572-4.251.934.934,0,0,1,.957-.957h4.049a1.35,1.35,0,0,1,.885.253,2.574,2.574,0,0,1,.523.612,4.578,4.578,0,0,0,1.049,1.705,5.766,5.766,0,0,0,2.112,1.39,9.1,9.1,0,0,0,3.39.544,8.81,8.81,0,0,0,4.89-1.09,3.4,3.4,0,0,0,1.616-2.956,2.749,2.749,0,0,0-.865-2.115,8.081,8.081,0,0,0-2.662-1.456,46.263,46.263,0,0,0-4.753-1.387,26.532,26.532,0,0,1-5.71-1.979,8.661,8.661,0,0,1-3.455-2.935,8.056,8.056,0,0,1-1.162-4.5,7.956,7.956,0,0,1,1.435-4.682,9.6,9.6,0,0,1,4.094-3.229,15.5,15.5,0,0,1,6.346-1.185,15.76,15.76,0,0,1,5.229.8,11.517,11.517,0,0,1,3.776,2.091,9.909,9.909,0,0,1,2.3,2.775,6.484,6.484,0,0,1,.841,2.885.982.982,0,0,1-.25.66.868.868,0,0,1-.7.3h-4.23a1.612,1.612,0,0,1-.728-.184,1.329,1.329,0,0,1-.591-.683A3.767,3.767,0,0,0,104.33,22.4a6.857,6.857,0,0,0-3.865-1,7.562,7.562,0,0,0-3.957.909A3.062,3.062,0,0,0,95,25.13a3.059,3.059,0,0,0,.752,2.112,6.109,6.109,0,0,0,2.409,1.479,45.242,45.242,0,0,0,4.391,1.364,32.126,32.126,0,0,1,6.322,2,8.279,8.279,0,0,1,3.592,2.888,7.977,7.977,0,0,1,1.138,4.435,8.165,8.165,0,0,1-1.616,5.116,10.165,10.165,0,0,1-4.522,3.253,18.6,18.6,0,0,1-6.779,1.138" transform="translate(172.892 31.862)" fill="#003252"/>
        <path id="Path_201" data-name="Path 201" d="M99.291,48.159A1.09,1.09,0,0,1,98.2,47.066V17.414a1.09,1.09,0,0,1,1.093-1.093h4.275a1.038,1.038,0,0,1,.8.318,1.1,1.1,0,0,1,.3.775V47.066a1.1,1.1,0,0,1-.3.775,1.038,1.038,0,0,1-.8.318Z" transform="translate(193.53 32.165)" fill="#003252"/>
        <path id="Path_202" data-name="Path 202" d="M115.736,48.917a16.521,16.521,0,0,1-6.961-1.343,10.041,10.041,0,0,1-4.548-4.138,14.6,14.6,0,0,1-1.774-6.984q-.045-1.956-.045-3.865t.045-3.913a13.987,13.987,0,0,1,1.821-6.913,10.731,10.731,0,0,1,4.614-4.186,17.4,17.4,0,0,1,13.716,0,10.708,10.708,0,0,1,4.637,4.186,14.019,14.019,0,0,1,1.818,6.913q.094,2,.092,3.913t-.092,3.865a14.569,14.569,0,0,1-1.774,6.984,10,10,0,0,1-4.569,4.138,16.678,16.678,0,0,1-6.981,1.343m0-5.232a6.753,6.753,0,0,0,4.819-1.753q1.867-1.747,2.005-5.707.089-2,.089-3.708t-.089-3.663a9.841,9.841,0,0,0-.98-4.3,5.5,5.5,0,0,0-2.389-2.412,7.649,7.649,0,0,0-3.455-.752,7.528,7.528,0,0,0-3.41.752,5.518,5.518,0,0,0-2.392,2.412,9.842,9.842,0,0,0-.977,4.3q-.045,1.956-.045,3.663t.045,3.708q.138,3.957,2,5.707a6.7,6.7,0,0,0,4.777,1.753" transform="translate(201.829 31.862)" fill="#003252"/>
        <path id="Path_203" data-name="Path 203" d="M114.509,48.159a1.09,1.09,0,0,1-1.093-1.093V17.459a1.1,1.1,0,0,1,.321-.82,1.054,1.054,0,0,1,.772-.318h3.5a1.282,1.282,0,0,1,.933.294,3.733,3.733,0,0,1,.386.434l13.1,20.377V17.459a1.145,1.145,0,0,1,.3-.82,1.034,1.034,0,0,1,.8-.318h3.82a1.089,1.089,0,0,1,1.138,1.138V47.021a1.12,1.12,0,0,1-.318.82,1.065,1.065,0,0,1-.775.318H133.84a1.154,1.154,0,0,1-.912-.318,2.563,2.563,0,0,0-.407-.41L119.468,27.509V47.066a1.06,1.06,0,0,1-.318.775,1.12,1.12,0,0,1-.82.318Z" transform="translate(223.522 32.165)" fill="#003252"/>
        <path id="Path_204" data-name="Path 204" d="M54.02,55.8a.893.893,0,0,1-.894-.894V30.673A.907.907,0,0,1,53.387,30a.863.863,0,0,1,.633-.261H70.4a.891.891,0,0,1,.93.933V33.13a.87.87,0,0,1-.258.633.9.9,0,0,1-.671.258H58.153v6.592H69.584a.942.942,0,0,1,.668.241.844.844,0,0,1,.261.654v2.305a.844.844,0,0,1-.261.654.942.942,0,0,1-.668.241H58.153v6.815H70.7a.891.891,0,0,1,.93.93v2.457a.863.863,0,0,1-.261.633.9.9,0,0,1-.668.261Z" transform="translate(104.702 58.612)" fill="#003252"/>
        <path id="Path_205" data-name="Path 205" d="M61.815,55.8a.888.888,0,0,1-.894-.894V30.673A.907.907,0,0,1,61.182,30a.863.863,0,0,1,.633-.261H70.9A14.494,14.494,0,0,1,77.1,30.9a7.961,7.961,0,0,1,3.687,3.425,11.652,11.652,0,0,1,1.283,5.547q.076,1.64.077,2.905t-.077,2.867A12.756,12.756,0,0,1,80.8,51.356a7.463,7.463,0,0,1-3.595,3.351,14.806,14.806,0,0,1-6.126,1.1ZM66.1,51.522h4.8a8.18,8.18,0,0,0,3.387-.6A3.778,3.778,0,0,0,76.2,49.009a8.661,8.661,0,0,0,.654-3.482c.024-.743.045-1.4.056-1.955s.012-1.117,0-1.676-.033-1.2-.056-1.916a6.383,6.383,0,0,0-1.527-4.507,6.317,6.317,0,0,0-4.617-1.453H66.1Z" transform="translate(120.064 58.612)" fill="#003252"/>
        <path id="Path_206" data-name="Path 206" d="M80.266,56.175a13.342,13.342,0,0,1-5.621-1.1,7.975,7.975,0,0,1-3.687-3.387,11.741,11.741,0,0,1-1.3-5.864V30.671A.9.9,0,0,1,69.915,30a.861.861,0,0,1,.633-.258h3.39a.85.85,0,0,1,.651.258.954.954,0,0,1,.241.671V45.825a6.229,6.229,0,0,0,1.453,4.525,5.346,5.346,0,0,0,3.984,1.471,5.286,5.286,0,0,0,3.966-1.471,6.265,6.265,0,0,0,1.432-4.525V30.671a.891.891,0,0,1,.933-.93h3.351A.85.85,0,0,1,90.6,30a.956.956,0,0,1,.244.671V45.825a11.906,11.906,0,0,1-1.286,5.864,7.9,7.9,0,0,1-3.648,3.387,13.317,13.317,0,0,1-5.642,1.1" transform="translate(137.281 58.613)" fill="#003252"/>
        <path id="Path_207" data-name="Path 207" d="M89.337,56.424a12.913,12.913,0,0,1-5.864-1.212,8.436,8.436,0,0,1-3.666-3.461,12.062,12.062,0,0,1-1.414-5.416q-.04-1.528-.039-3.28t.039-3.348a11.973,11.973,0,0,1,1.432-5.4,8.546,8.546,0,0,1,3.687-3.482,12.812,12.812,0,0,1,5.826-1.212,14.357,14.357,0,0,1,4.542.671A10.55,10.55,0,0,1,97.3,32.131a8.387,8.387,0,0,1,2.2,2.736,7.788,7.788,0,0,1,.82,3.387.624.624,0,0,1-.2.559.821.821,0,0,1-.576.223H96a1.049,1.049,0,0,1-.668-.2,1.154,1.154,0,0,1-.371-.689,5.118,5.118,0,0,0-2.05-3.348,6.754,6.754,0,0,0-3.61-.9,5.6,5.6,0,0,0-3.987,1.4q-1.488,1.4-1.6,4.6-.111,3.048,0,6.254t1.6,4.6a5.6,5.6,0,0,0,3.987,1.4,6.651,6.651,0,0,0,3.61-.912,5.181,5.181,0,0,0,2.05-3.333,1.1,1.1,0,0,1,.371-.707A1.119,1.119,0,0,1,96,47h3.538a.821.821,0,0,1,.576.223.624.624,0,0,1,.2.559,7.8,7.8,0,0,1-.82,3.39,8.418,8.418,0,0,1-2.2,2.736,10.49,10.49,0,0,1-3.425,1.842,14.273,14.273,0,0,1-4.542.671" transform="translate(154.421 58.365)" fill="#003252"/>
        <path id="Path_208" data-name="Path 208" d="M87.12,55.8a.773.773,0,0,1-.541-.223.719.719,0,0,1-.244-.559.837.837,0,0,1,.077-.333l8.969-24.016a1.418,1.418,0,0,1,.431-.651,1.269,1.269,0,0,1,.873-.279h4.058a1.2,1.2,0,0,1,.859.279,1.77,1.77,0,0,1,.446.651l8.972,24.016a1.789,1.789,0,0,1,.039.333.754.754,0,0,1-.223.559.717.717,0,0,1-.523.223h-3.238a1.046,1.046,0,0,1-.764-.241,1.209,1.209,0,0,1-.318-.466l-1.747-4.542H93.187l-1.75,4.542a1.209,1.209,0,0,1-.318.466,1.038,1.038,0,0,1-.761.241Zm7.371-9.53h8.452L98.7,34.768Z" transform="translate(170.152 58.613)" fill="#003252"/>
        <path id="Path_209" data-name="Path 209" d="M102.894,55.8a.893.893,0,0,1-.894-.894V34.321H95.113a.888.888,0,0,1-.894-.894V30.673A.916.916,0,0,1,94.477,30a.875.875,0,0,1,.636-.261H114.1a.891.891,0,0,1,.93.933v2.754a.87.87,0,0,1-.258.633.918.918,0,0,1-.671.261h-6.851V54.909a.861.861,0,0,1-.258.633.906.906,0,0,1-.671.261Z" transform="translate(185.688 58.612)" fill="#003252"/>
        <path id="Path_210" data-name="Path 210" d="M103.384,55.8a.893.893,0,0,1-.894-.894V30.634a.893.893,0,0,1,.894-.894h3.5a.848.848,0,0,1,.651.261.889.889,0,0,1,.244.633V54.909a.884.884,0,0,1-.244.633.838.838,0,0,1-.651.261Z" transform="translate(201.989 58.612)" fill="#003252"/>
        <path id="Path_211" data-name="Path 211" d="M116.846,56.424a13.549,13.549,0,0,1-5.7-1.1,8.209,8.209,0,0,1-3.722-3.39,11.947,11.947,0,0,1-1.453-5.716q-.036-1.6-.036-3.164t.036-3.2a11.471,11.471,0,0,1,1.491-5.659,8.791,8.791,0,0,1,3.776-3.425,14.211,14.211,0,0,1,11.227,0,8.76,8.76,0,0,1,3.8,3.425,11.5,11.5,0,0,1,1.491,5.659c.048,1.093.074,2.16.074,3.2s-.027,2.1-.074,3.164a11.946,11.946,0,0,1-1.453,5.716,8.2,8.2,0,0,1-3.743,3.39,13.649,13.649,0,0,1-5.713,1.1m0-4.281a5.529,5.529,0,0,0,3.945-1.435q1.529-1.43,1.64-4.67c.048-1.093.074-2.106.074-3.036s-.027-1.931-.074-3a8.049,8.049,0,0,0-.8-3.517,4.5,4.5,0,0,0-1.955-1.976,6.278,6.278,0,0,0-2.828-.612,6.186,6.186,0,0,0-2.793.612,4.5,4.5,0,0,0-1.955,1.976A8.049,8.049,0,0,0,111.3,40c-.024,1.067-.036,2.068-.036,3s.012,1.943.036,3.036q.111,3.235,1.64,4.67a5.475,5.475,0,0,0,3.91,1.435" transform="translate(208.782 58.365)" fill="#003252"/>
        <path id="Path_212" data-name="Path 212" d="M115.841,55.8a.893.893,0,0,1-.894-.894V30.673a.907.907,0,0,1,.261-.671.863.863,0,0,1,.633-.261h2.867a1.034,1.034,0,0,1,.764.244,3.285,3.285,0,0,1,.318.354l10.722,16.678V30.673a.954.954,0,0,1,.241-.671.854.854,0,0,1,.654-.261h3.125a.9.9,0,0,1,.933.933v24.2a.911.911,0,0,1-.261.668.861.861,0,0,1-.633.261h-2.905a.935.935,0,0,1-.746-.261,2.154,2.154,0,0,0-.333-.336L119.9,38.9v16.01a.863.863,0,0,1-.261.633.9.9,0,0,1-.668.261Z" transform="translate(226.539 58.612)" fill="#003252"/>
      </g>
    </g>
  </g>
</svg>
