<?xml version="1.0" encoding="UTF-8"?>
<!-- Generated by Pixelmator Pro 3.7.1 -->
<svg width="512" height="512" viewBox="0 0 512 512" xmlns="http://www.w3.org/2000/svg">
    <g id="Original">
        <path id="Path" fill="#2b9c9c" stroke="none" d="M 132.885498 112.366394 C 147.541977 112.366394 159.853409 100.054962 159.853409 85.398468 C 159.853409 70.741974 147.541977 58.430511 132.885498 58.430511 C 118.228996 58.430511 105.917549 70.741974 105.917549 85.398468 C 105.917549 100.054962 118.228996 112.366394 132.885498 112.366394 Z M 118.228996 302.900757 C 118.228996 307.004578 121.746559 310.522095 125.850365 310.522095 C 129.954193 310.522095 133.471741 307.004578 133.471741 302.900757 C 133.471741 298.796936 129.954193 295.279358 125.850365 295.279358 C 121.746559 295.279358 118.228996 298.796936 118.228996 302.900757 Z M 172.164886 146.369446 C 178.613724 146.369446 183.303802 141.09314 183.303802 135.23053 C 183.303802 128.781677 178.027481 124.091583 172.164886 124.091583 C 165.716019 124.091583 161.02594 129.36792 161.02594 135.23053 C 161.02594 141.09314 165.716019 146.369446 172.164886 146.369446 Z M 83.639694 247.792358 C 98.296181 247.792358 110.607628 235.480896 110.607628 220.824402 C 110.607628 206.167908 98.296181 193.856476 83.639694 193.856476 C 68.9832 193.856476 56.671753 206.167908 56.671753 220.824402 C 57.258015 235.480896 68.9832 247.792358 83.639694 247.792358 Z M 44.946568 184.476288 C 51.39542 184.476288 56.085495 179.200012 56.085495 173.337402 C 56.085495 166.88855 50.809158 162.198456 44.946568 162.198456 C 38.497707 162.198456 33.807636 167.474792 33.807636 173.337402 C 33.807636 179.786255 38.497707 184.476288 44.946568 184.476288 Z M 40.842751 209.099213 C 40.842751 204.995392 37.325188 201.477844 33.221375 201.477844 C 29.117559 201.477844 25.6 204.995392 25.6 209.099213 C 25.6 213.203033 29.117559 216.720612 33.221375 216.720612 C 37.325188 216.720612 40.842751 213.203033 40.842751 209.099213 Z M 76.604576 145.783203 C 87.157249 145.783203 95.364883 137.575562 95.364883 127.022888 C 95.364883 116.470245 87.157249 108.262573 76.604576 108.262573 C 66.05191 108.262573 57.844276 116.470245 57.844276 127.022888 C 57.844276 137.575562 66.05191 145.783203 76.604576 145.783203 Z M 304.659515 42.601501 C 308.763336 42.601501 312.280884 39.083954 312.280884 34.980164 C 312.280884 30.876343 308.763336 27.358765 304.659515 27.358765 C 300.555695 27.358765 297.038147 30.876343 297.038147 34.980164 C 297.038147 39.083954 300.555695 42.601501 304.659515 42.601501 Z M 99.468689 299.969421 C 99.468689 281.79541 84.81221 267.138916 66.638168 267.138916 C 48.464123 267.138916 33.807636 281.79541 33.807636 299.969421 C 33.807636 318.143494 48.464123 332.799957 66.638168 332.799957 C 84.81221 332.799957 99.468689 318.143494 99.468689 299.969421 Z M 428.360291 161.612213 C 443.016785 161.612213 455.328217 149.300751 455.328217 134.644257 C 455.328217 119.987762 443.016785 107.676331 428.360291 107.676331 C 413.703796 107.676331 401.392334 119.987762 401.392334 134.644257 C 401.392334 149.300751 413.117554 161.612213 428.360291 161.612213 Z M 367.975555 346.870178 C 367.975555 357.422913 376.183167 365.630493 386.73587 365.630493 C 397.288513 365.630493 405.496155 357.422913 405.496155 346.870178 C 405.496155 336.317535 397.288513 328.109894 386.73587 328.109894 C 376.183167 328.109894 367.975555 336.317535 367.975555 346.870178 Z M 386.73587 97.123657 C 397.288513 97.123657 405.496155 88.916016 405.496155 78.363373 C 405.496155 67.810669 397.288513 59.603027 386.73587 59.603027 C 376.183167 59.603027 367.975555 67.810669 367.975555 78.363373 C 367.975555 88.916016 376.183167 97.123657 386.73587 97.123657 Z M 345.11142 145.783203 C 355.664093 145.783203 363.871735 137.575562 363.871735 127.022888 C 363.871735 116.470245 355.664093 108.262573 345.11142 108.262573 C 334.558777 108.262573 326.351105 116.470245 326.351105 127.022888 C 326.351105 137.575562 334.558777 145.783203 345.11142 145.783203 Z M 412.53125 212.030518 C 412.53125 230.204559 427.187744 244.861053 445.361816 244.861053 C 463.535828 244.861053 478.192352 230.204559 478.192352 212.030518 C 478.192352 193.856476 463.535828 179.200012 445.361816 179.200012 C 427.187744 179.200012 412.53125 193.856476 412.53125 212.030518 Z M 393.770966 209.099213 C 393.770966 204.995392 390.253418 201.477844 386.149597 201.477844 C 382.045776 201.477844 378.528229 204.995392 378.528229 209.099213 C 378.528229 213.203033 382.045776 216.720612 386.149597 216.720612 C 390.253418 216.720612 393.770966 213.203033 393.770966 209.099213 Z M 339.835114 57.258026 C 346.283966 57.258026 350.973999 51.981659 350.973999 46.119049 C 350.973999 40.25647 345.697723 34.980164 339.835114 34.980164 C 333.386261 34.980164 328.696167 40.25647 328.696167 46.119049 C 328.696167 51.981659 333.972504 57.258026 339.835114 57.258026 Z M 375.010681 184.476288 C 381.459534 184.476288 386.149597 179.200012 386.149597 173.337402 C 386.149597 166.88855 380.873291 162.198456 375.010681 162.198456 C 369.148071 162.198456 363.871735 167.474792 363.871735 173.337402 C 363.871735 179.786255 369.148071 184.476288 375.010681 184.476288 Z M 144.024414 165.129761 C 144.024414 154.577087 135.816788 146.369446 125.264114 146.369446 C 114.711449 146.369446 106.503807 154.577087 106.503807 165.129761 C 106.503807 175.682434 114.711449 183.890045 125.264114 183.890045 C 135.816788 183.890045 144.024414 175.682434 144.024414 165.129761 Z M 339.835114 365.630493 C 333.386261 365.630493 328.696167 370.90683 328.696167 376.769409 C 328.696167 383.218262 333.972504 387.908356 339.835114 387.908356 C 346.283966 387.908356 350.973999 382.632019 350.973999 376.769409 C 350.973999 370.90683 346.283966 365.630493 339.835114 365.630493 Z M 301.728241 410.772491 C 283.554199 410.772491 268.897705 425.428986 268.897705 443.603027 C 268.897705 461.777039 283.554199 476.433533 301.728241 476.433533 C 319.902252 476.433533 334.558777 461.777039 334.558777 443.603027 C 334.558777 425.428986 319.902252 410.772491 301.728241 410.772491 Z M 379.114471 399.633545 C 364.458008 399.633545 352.146576 411.945007 352.146576 426.601501 C 352.146576 441.257965 364.458008 453.569397 379.114471 453.569397 C 393.770966 453.569397 406.082397 441.257965 406.082397 426.601501 C 406.082397 411.945007 393.770966 399.633545 379.114471 399.633545 Z M 297.038147 387.908356 C 297.038147 392.012146 300.555695 395.529755 304.659515 395.529755 C 308.763336 395.529755 312.280884 392.012146 312.280884 387.908356 C 312.280884 383.804565 308.763336 380.286987 304.659515 380.286987 C 300.555695 380.873291 297.038147 383.804565 297.038147 387.908356 Z M 478.778595 295.279358 C 474.674805 295.279358 471.157196 298.796936 471.157196 302.900757 C 471.157196 307.004578 474.674805 310.522095 478.778595 310.522095 C 482.882385 310.522095 486.399994 307.004578 486.399994 302.900757 C 486.399994 298.796936 482.296143 295.279358 478.778595 295.279358 Z M 467.053375 327.523651 C 460.604523 327.523651 455.91449 332.799957 455.91449 338.662537 C 455.91449 345.111389 461.190796 349.801514 467.053375 349.801514 C 473.502228 349.801514 478.192352 344.525146 478.192352 338.662537 C 478.192352 332.213715 473.502228 327.523651 467.053375 327.523651 Z M 289.416779 112.366394 C 304.073242 112.366394 316.384705 100.054962 316.384705 85.398468 C 316.384705 70.741974 304.073242 58.430511 289.416779 58.430511 C 274.760284 58.430511 262.448822 70.741974 262.448822 85.398468 C 262.448822 100.054962 274.760284 112.366394 289.416779 112.366394 Z M 428.360291 264.207642 C 413.703796 264.207642 401.392334 276.519043 401.392334 291.175537 C 401.392334 305.832031 413.703796 318.143494 428.360291 318.143494 C 443.016785 318.143494 455.328217 305.832031 455.328217 291.175537 C 454.741974 276.519043 443.016785 264.207642 428.360291 264.207642 Z M 83.639694 350.387756 C 68.9832 350.387756 56.671753 362.699188 56.671753 377.355682 C 56.671753 392.012146 68.9832 404.323639 83.639694 404.323639 C 98.296181 404.323639 110.607628 392.012146 110.607628 377.355682 C 110.607628 362.699188 98.882439 350.387756 83.639694 350.387756 Z M 435.395386 366.216797 C 424.842743 366.216797 416.635101 374.424377 416.635101 384.977081 C 416.635101 395.529755 424.842743 403.737366 435.395386 403.737366 C 445.948059 403.737366 454.155731 395.529755 454.155731 384.977081 C 454.155731 374.424377 445.948059 366.216797 435.395386 366.216797 Z M 136.989304 327.523651 C 130.540451 327.523651 125.850365 332.799957 125.850365 338.662537 C 125.850365 345.111389 131.126724 349.801514 136.989304 349.801514 C 142.851898 349.801514 148.128235 344.525146 148.128235 338.662537 C 148.128235 332.213715 142.851898 327.523651 136.989304 327.523651 Z M 166.888535 366.216797 C 156.335876 366.216797 148.128235 374.424377 148.128235 384.977081 C 148.128235 395.529755 156.335876 403.737366 166.888535 403.737366 C 177.441193 403.737366 185.648834 395.529755 185.648834 384.977081 C 185.648834 374.424377 177.441193 366.216797 166.888535 366.216797 Z M 172.164886 454.741943 C 165.716019 454.741943 161.02594 460.018311 161.02594 465.88089 C 161.02594 471.7435 166.302277 477.019775 172.164886 477.019775 C 178.613724 477.019775 183.303802 471.7435 183.303802 465.88089 C 183.303802 460.018311 178.027481 454.741943 172.164886 454.741943 Z M 125.264114 414.876282 C 114.711449 414.876282 106.503807 423.083923 106.503807 433.636627 C 106.503807 444.18927 114.711449 452.396912 125.264114 452.396912 C 135.816788 452.396912 144.024414 444.18927 144.024414 433.636627 C 144.024414 423.083923 135.816788 414.876282 125.264114 414.876282 Z M 200.305328 124.091583 C 200.305328 128.195404 203.822876 131.712982 207.926712 131.712982 C 212.030518 131.712982 215.54808 128.195404 215.54808 124.091583 C 215.54808 119.987762 212.030518 116.470245 207.926712 116.470245 C 203.236633 116.470245 200.305328 119.987762 200.305328 124.091583 Z M 243.102264 67.810669 C 243.102264 49.636627 228.445786 34.980164 210.271744 34.980164 C 192.097702 34.980164 177.441193 49.636627 177.441193 67.810669 C 177.441193 85.984711 192.097702 100.641235 210.271744 100.641235 C 228.445786 101.227478 243.102264 86.570984 243.102264 67.810669 Z M 207.340454 469.398438 C 203.236633 469.398438 199.71907 472.915985 199.71907 477.019775 C 199.71907 481.123627 203.236633 484.641174 207.340454 484.641174 C 211.444275 484.641174 214.961823 481.123627 214.961823 477.019775 C 214.961823 472.915985 211.444275 469.398438 207.340454 469.398438 Z M 222.583176 399.633545 C 207.926712 399.633545 195.615265 411.945007 195.615265 426.601501 C 195.615265 441.257965 207.926712 453.569397 222.583176 453.569397 C 237.239685 453.569397 249.551147 441.257965 249.551147 426.601501 C 249.551147 411.945007 237.239685 399.633545 222.583176 399.633545 Z"/>
    </g>
</svg>
